<svg xmlns="http://www.w3.org/2000/svg" width="1200" height="1200" version="1.0" viewBox="0 0 900 900"><path d="M423.5 5c-4.9.4-13.7 1.1-19.5 1.5-5.8.4-12.5 1.1-15 1.7-2.5.5-7.4 1.3-11 1.7-3.6.4-7.2 1.1-8 1.4-.8.4-4.6 1.1-8.5 1.6-3.8.6-10.8 1.9-15.5 3.1-4.7 1.1-10.3 2.5-12.5 3-5.6 1.2-17.7 4.7-22.8 6.6-2.3.8-5.5 1.9-7.2 2.4-4 1.1-12.7 4.2-21.7 7.6-6.2 2.4-8.6 3.4-21.3 8.9-3.6 1.6-22 10.7-29 14.4-4.7 2.4-18.2 10.4-24.3 14.3-1.5.9-3.7 2.3-4.9 3-11.5 6.8-36.3 25.7-52.6 40.1-16.5 14.6-55.4 56.5-57.7 62.2-.4 1.2-1.6 2.7-2.5 3.5-2.1 1.7-21 30-24.5 36.5-.6 1.1-1.9 3.3-3 5-1.1 1.6-2.2 3.6-2.5 4.2-.3.7-.7 1.9-1 2.5-.3.7-1.5 2.9-2.6 4.8-2.3 3.7-11.1 21.2-13.6 27-.8 1.9-1.9 4.2-2.4 5-.9 1.6-1.1 1.9-3.6 8.5-.8 2.2-2.1 5.3-2.8 7-.7 1.6-1.9 4.8-2.8 7-.8 2.2-2.2 5.8-3 8-.9 2.2-2.3 6.5-3.2 9.5-.9 3-2.1 6.8-2.6 8.5-1.2 3.7-4.4 14.2-6.3 21-1.9 6.4-3.5 13.7-4.6 20-.4 2.7-1.1 5.7-1.5 6.6-.9 2.3-3.4 17.7-4.6 27.9-.5 4.7-1.2 10.1-1.5 12-1.9 11.8-1.9 80.9 0 94.5.3 2.2 1 7.8 1.5 12.5 2 16.8 7.4 43.7 11.5 57.5.9 2.7 2.1 7 2.7 9.5.6 2.5 1.7 6.1 2.4 8 .7 1.9 1.8 5.1 2.4 7 .7 1.9 1.6 4.8 2.1 6.5.5 1.6 1.8 5.5 3 8.5s2.5 6.6 2.9 8c.5 1.4 2 5.1 3.5 8.1 1.4 3.1 2.6 5.9 2.6 6.3 0 1.4 11.1 24.2 14.9 30.7 1.1 1.9 3.2 5.6 4.6 8.4 1.4 2.7 3.3 6.2 4.3 7.6.9 1.5 3.6 5.7 6 9.5 2.3 3.8 4.8 7.8 5.5 8.9.6 1.1 3 4.4 5.3 7.5 2.2 3 5 7.1 6.1 9 1.2 1.9 3 4.4 4 5.5 1 1.1 2.9 3.6 4.3 5.5 11.2 16.3 49 55.8 68 71.4 5.2 4.2 10.4 8.5 11.5 9.5 1.1.9 3.6 2.8 5.5 4.1 1.9 1.4 4.4 3.3 5.6 4.3 2.8 2.4 23.1 16.1 32.4 21.8 10.7 6.6 20.5 11.9 36 19.5 13 6.3 16.3 7.8 23.3 10.8 1.7.8 4.3 1.9 5.7 2.5 4.2 1.8 19.3 7.2 22.6 8 1.8.5 3.7 1.2 4.4 1.6.6.4 3.6 1.3 6.6 2.1 3 .7 7.8 2 10.7 2.8 21.3 5.7 41.2 10 54.2 11.7 3.3.4 8.7 1.2 12 1.8 10.6 1.8 28.2 2.5 59.5 2.5 31.9 0 49.9-.8 57.8-2.5 2.6-.6 7.6-1.3 11.2-1.6 3.6-.3 7-.9 7.6-1.4.6-.5 4.4-1.2 8.5-1.5 4.1-.4 7.9-1 8.4-1.4.6-.4 3.9-1.3 7.5-1.9 8.3-1.4 14.6-3 18.8-4.7 1.8-.8 4.1-1.4 5.2-1.4 1.1 0 3.7-.6 5.7-1.4 2.1-.8 8.3-2.8 13.8-4.5 5.5-1.7 11.8-3.8 14-4.7 2.2-.9 5.8-2.3 8-3.1 6.8-2.6 17.4-7.2 19.5-8.4.8-.5 2.2-1.2 3-1.5.8-.3 2.2-1 3-1.5.8-.5 2.2-1.2 3-1.5 1.8-.7 21.3-10.5 23.8-11.9.9-.6 3.6-2.3 5.9-3.8 2.4-1.5 4.5-2.7 4.7-2.7.8 0 25.1-16.6 32.6-22.3 12.4-9.4 13.2-10.1 17.5-13.7 2.3-1.9 5.9-4.9 8-6.5 10.1-8 37.3-34.6 47.5-46.4 2.5-2.9 6.2-7 8.3-9.2 2-2.1 3.7-4.2 3.7-4.7 0-.4 1-1.8 2.3-3.2 2.8-3 20.7-26.7 20.7-27.4 0-.2 1.9-3.3 4.2-6.8 2.4-3.5 4.7-7.1 5.3-8 .5-.9 3.3-5.4 6-10 7.1-11.8 6.4-10.5 16.9-31.5 5.3-10.5 9.6-19.6 9.6-20.2 0-.5.6-2.2 1.4-3.8.8-1.5 2.2-4.8 3.1-7.3 1-2.5 2.1-5.4 2.6-6.5 1.5-3.5 4.9-14.4 4.9-15.6 0-.6.6-2.5 1.4-4.2 1.6-3.8 4.4-13.2 8.9-29.7 2.9-10.7 4-15.6 4.7-21.2.4-3.1 1-6.1 1.4-6.6.9-1.5 4.4-29.3 5.2-41.5.5-7.7 1.1-11 2-11.4 2-.7 2.1-46.4.2-46-.9.1-1.4-1.5-1.6-4.8-.8-12.9-5.2-49.2-6.3-52.3-.5-1.3-.9-3.9-.9-5.9 0-2-.6-5.9-1.4-8.7-.8-2.8-2.1-8.5-3-12.6-.9-4.1-2.3-9.9-3.1-12.8-4.1-14.5-4.8-17-6-20.2-2.9-8.2-3.7-10.7-4.5-13.5-.5-1.7-1.8-5.5-3-8.5s-2.5-6.7-3-8.1c-.4-1.4-1.2-3.4-1.8-4.5-.6-1-2-4.4-3.2-7.4-3.3-8.2-11.3-25.1-16.9-35.5-12.8-24-31.7-52.2-49-73-9.8-11.9-43.1-45-55.1-54.9-5.2-4.3-10.4-8.5-11.5-9.4-1.1-.9-3.5-2.7-5.4-4-1.8-1.3-4-3-4.8-3.8-.8-.8-2.4-1.9-3.6-2.6-1.2-.6-4.7-3-7.7-5.2-3.1-2.3-6.4-4.7-7.5-5.3-7.7-4.8-16.1-10.1-18.3-11.5-1.5-1-3.6-2.2-4.7-2.8-1.1-.6-4-2.2-6.5-3.6-10.5-6.1-40.2-20.4-42.3-20.4-.7 0-2.1-.6-3.2-1.3-1.1-.8-2.9-1.6-4-2-1.1-.3-4.5-1.5-7.5-2.7-3-1.2-6.8-2.5-8.5-3-1.6-.5-4.6-1.4-6.5-2.1-14.6-5.1-20.5-6.9-22.6-6.9-1.1 0-3.2-.7-4.8-1.5-1.5-.8-4.2-1.5-5.8-1.5-1.6 0-3.8-.5-4.8-1-2.1-1.1-12.7-3.5-22.5-5.1-3.3-.5-7.1-1.2-8.5-1.5-1.4-.3-5.6-.9-9.5-1.3-3.8-.5-7.7-1.1-8.5-1.5-6.7-2.7-67.6-5.2-87.5-3.6zm58.2 26c7.2.5 15.8 1.3 19 1.9 3.2.6 9.2 1.5 13.3 2.1 15.6 2.2 44 7.9 49.2 9.9 1.3.5 5 1.6 8.3 2.6 3.3.9 7.5 2.3 9.3 3.1 1.8.8 4.1 1.4 5.2 1.4 1.8 0 4.2.8 14.5 4.7 2.2.8 5.8 2.2 8 3 9.7 3.7 34.6 15 40.5 18.4 1.9 1.1 4.9 2.7 6.5 3.5 1.7.8 4.4 2.3 6 3.4 1.7 1.1 3.9 2.4 5 2.9s3.7 2.1 5.8 3.5c2.1 1.4 4 2.6 4.2 2.6.2 0 3.4 2.1 7.2 4.7 3.7 2.6 8.8 6 11.3 7.7 8.1 5.5 21.4 15.8 34.5 27.1 10.6 9 46.5 45.7 46.5 47.4 0 .5.7 1.5 1.7 2.2 1.5 1.3 23.4 30.3 26 34.4.7 1.1 3.8 6.2 7 11.4 11.4 18.5 27.3 48.5 27.3 51.7 0 .4 1 2.8 2.1 5.3 3.5 7.4 6.3 14.9 7.5 19.6.3 1.1 1 2.9 1.5 4 1.5 3.5 4 10.9 4.6 13.5.3 1.4 1.1 3.9 1.9 5.7.8 1.7 1.4 4 1.4 5.2 0 1.1.6 3.5 1.4 5.3 1.6 3.7 3.3 10.2 4.6 16.8l2.9 14.5c1.2 5.5 2.6 13.1 3.1 17 .6 3.8 1.3 8.3 1.5 10 2.7 16.5 3.7 70.6 1.6 94-1 12.5-3.2 28.5-5 36.4-.5 2.5-1.3 6.5-1.6 8.8-.4 2.4-1.1 4.5-1.6 4.9-.5.3-.9 2-.9 3.7 0 1.8-.6 5.2-1.4 7.7-.8 2.5-2.2 7.4-3.2 11-.9 3.6-2.3 8.2-3 10.3-.8 2-1.4 4.5-1.4 5.3 0 .9-.6 3-1.4 4.7-.8 1.8-1.6 4.1-1.9 5.2-1.1 4.3-4.5 13.1-7.3 18.8-.8 1.6-1.4 3.5-1.4 4.2 0 .7-.7 2.6-1.5 4.2-.8 1.5-5 10-9.3 18.8-4.4 8.8-8.9 17.6-10 19.5-1.2 1.9-2.6 4.4-3.2 5.5-.6 1.1-1.9 3.3-3 5-1.1 1.6-2.3 3.7-2.7 4.5-1.2 2.7-15.4 23.2-21.6 31.5-11.6 15.3-47.1 54.3-54.2 59.5-1.1.8-8.3 6.9-16 13.5-13.2 11.4-19.9 16.7-23.7 19-.9.5-7.6 5-14.8 10-15.8 10.8-17.9 12.2-20.5 13.5-1.1.6-3.3 1.9-5 3-3.1 2-29.5 15.2-37.5 18.7-8.6 3.8-23.3 9.3-30.5 11.3-1.6.5-6.6 2.1-11 3.5s-10.5 3.3-13.5 4.1c-3 .9-6.9 2-8.5 2.5-3.5 1-15.9 3.7-23 4.9-2.7.5-7.2 1.3-10 1.9-2.7.6-7.5 1.3-10.5 1.5-3 .3-8.4 1-12 1.6-10.8 1.6-36.6 3.1-53.5 3.1-17.3-.1-49.2-2.5-53.9-4.1-1.6-.6-5-1-7.6-1-2.6 0-6-.4-7.6-1-1.6-.5-5.6-1.4-8.9-1.9-7.7-1.3-18-3.5-22.5-4.8-1.9-.6-6-1.8-9-2.7-33.9-9.7-47.2-14.8-79-30.5-19.2-9.5-16.6-8-34.8-20.1-7.9-5.2-15.1-10-16-10.5-8.6-5.2-21.2-15.2-42.1-33.5-9.7-8.4-25.7-24-29-28.3-1.6-2.1-5.9-7.1-9.5-11-9.4-10.3-22.4-27.1-29.1-37.3-3.2-4.9-7.1-10.8-8.6-13.2-1.6-2.4-2.9-4.5-2.9-4.7 0-.2-2.6-4.8-5.8-10.2-3.2-5.4-6.8-11.8-8-14.3-1.3-2.5-2.7-5.2-3.2-6-.5-.8-2.1-4.2-3.5-7.5-1.5-3.3-3.6-8-4.7-10.5-1.2-2.5-2.7-6-3.4-7.7-.8-1.8-2-4.8-2.8-6.5-.8-1.8-1.6-4.2-1.9-5.3-.6-2.4-2.6-7.9-4.2-12-.7-1.7-2-5.7-2.9-9-1-3.3-2.2-7.4-2.8-9-.5-1.7-1.4-4.6-1.8-6.5-.4-1.9-1.3-4.9-1.8-6.5-1.3-3.7-3.1-10.6-4.1-16-.5-2.2-1.3-6-1.9-8.5-2.1-8.9-3.4-16.6-4.2-25-.5-4.7-1.4-11.7-2.1-15.5-1.6-9.3-1.6-74.2 0-84.5.6-4.1 1.6-11.9 2.1-17.3.6-5.5 1.3-10.4 1.7-11 .4-.7 1.1-3.7 1.5-6.7.9-7.3 2.7-15.6 4.4-20.5.8-2.3 1.4-5 1.4-6.2 0-1.1.7-3.7 1.5-5.6.8-2 1.5-4.6 1.5-5.8 0-1.1.6-3.5 1.4-5.2.7-1.8 2.2-6.1 3.4-9.7 1.1-3.6 3-9 4.2-12 1.2-3 2.5-6.9 3-8.5 1.2-4.6 6.1-16.2 14-33 6.3-13.6 7.4-15.7 10.1-20 1.4-2.2 2.9-4.7 3.2-5.5.4-.8 1.6-2.9 2.7-4.5 1.1-1.7 2.4-3.9 3-5 .6-1.1 1.9-3.4 3-5 1.1-1.7 2.3-3.7 2.7-4.5 1.9-4 23.1-33.1 25.9-35.5.6-.6 3.3-3.7 6-7 12.7-15.4 46.2-48.7 52.1-51.8 1-.5 2.3-1.5 2.8-2.1.6-.6 6-4.8 12-9.4 6.1-4.5 11.6-8.7 12.3-9.2 3.3-2.8 13.9-9.7 28.7-18.5 6.1-3.6 11.7-7 12.5-7.5.8-.6 2.2-1.3 3-1.6.8-.4 7.1-3.3 14-6.6s13.9-6.6 15.5-7.3c6.9-3 10.2-4.4 14-5.8 14.7-5.4 18.2-6.6 22-7.7 1.7-.5 4.4-1.3 6-1.8 1.7-.6 5.7-1.8 9-2.8 3.3-.9 8-2.3 10.4-3 2.5-.8 5.4-1.4 6.7-1.4 1.2 0 3.7-.6 5.5-1.4 1.9-.7 6-1.7 9.1-2 3.2-.4 6-1.2 6.3-1.7.4-.5 3-.9 6-.9s5.7-.5 6-1.1c.4-.6 1.4-.8 2.2-.5.8.3 2.2.2 3.1-.3 1-.5 4.7-1.2 8.2-1.5 3.6-.3 7.6-.8 9-1.1 9-2.1 59.5-3.1 81.7-1.5z"/><path d="M439.4 116.9c-24 9.7-65 46.7-92.8 83.9-4.5 5.9-8.5 11.5-9.1 12.4-.5.9-3.2 4.9-6 8.9-5.1 7.6-6.6 9.9-8.5 13.4-.6 1.1-1.9 3.3-3 5-1.1 1.6-2.2 3.7-2.6 4.5-.3.8-1 2.2-1.5 3-.5.8-1.2 2.2-1.6 3-.4.8-1.9 3.7-3.5 6.3-1.5 2.6-2.8 5.4-2.8 6.1 0 .8-.7 1.9-1.5 2.6-.8.7-1.5 1.9-1.5 2.8 0 .8-1.1 3.8-2.4 6.6-4.1 8.6-12.6 30.2-12.6 31.9 0 .8-.6 2.8-1.4 4.4-1.5 2.9-6.4 18.8-7.2 23.3-.3 1.4-1.1 4.7-1.9 7.5-2.4 8.5-4.4 17.6-5.9 27-.8 4.9-2 11.7-2.7 15-.6 3.3-1.5 10.3-2 15.5-.5 5.2-1.2 12-1.6 15-.7 7.1-.8 49-.1 60 1.5 21.7 4.2 44.5 6.3 52.5 1.4 5.1 3.2 14.2 4.1 20.5.3 1.9 1.2 4.9 2 6.7.8 1.7 1.4 4.1 1.4 5.3 0 1.2.7 4.3 1.5 6.9.9 2.5 3.8 11.3 6.5 19.6 7 21.6 6.9 21.1 14.2 37.5 5.3 11.8 15.4 31.1 19.5 37.2 1.6 2.4 3.2 5 3.6 5.8 1.7 3.6 18.5 27.8 22.7 32.7.5.7 2.1 2.9 3.5 4.9 8.2 12.1 34.6 39.5 47.9 49.6 3.7 2.9 8.5 6.8 10.6 8.6 2 1.7 4.1 3.2 4.5 3.2.4 0 2.4 1.2 4.4 2.7 4.7 3.6 6.8 4.9 11.1 6.9 13.6 6.2 23.1 5.8 37-1.7 6.4-3.4 22.3-14.5 29.1-20.3 1.9-1.7 5.7-4.9 8.4-7.1 16.4-13.7 41.7-42.3 56.3-63.8 14-20.6 15.2-22.8 26.1-44.7 6.2-12.5 8.8-18.2 12.6-28 .9-2.5 2.1-5.5 2.6-6.8 4.1-10.6 12.2-37.9 15.3-51.2 3.2-14.2 3.9-17.7 4.6-23 .5-3 1.3-7.3 1.8-9.5.6-2.2 1.3-6.9 1.5-10.5.3-3.6 1.1-10.1 1.8-14.5 1.8-10.9 1.8-80.6.1-92.5-.7-4.7-1.5-10.8-1.8-13.5-.2-2.8-1.1-8-1.9-11.7-.8-3.7-1.5-8.5-1.5-10.7 0-2.2-.4-4.2-.9-4.5-.5-.3-1.2-3.4-1.6-6.8-.4-3.5-1.3-7.3-2.1-8.5-.8-1.2-1.4-3.8-1.4-5.7 0-2-.6-5-1.4-6.8-.7-1.8-1.9-5.3-2.5-7.8-2.4-9.1-4.1-14.3-6.8-20.7-.7-1.7-1.3-3.6-1.3-4.2 0-.6-.7-2.7-1.6-4.8-.9-2.1-2.3-5.4-3.1-7.3-.8-1.9-2.1-4.8-2.9-6.3-.8-1.6-1.4-3.7-1.4-4.7 0-.9-.7-2.3-1.5-3-.8-.7-1.5-2-1.5-2.9 0-.9-.7-2.5-1.5-3.5-.8-1.1-1.5-2.7-1.5-3.7 0-.9-.7-2.2-1.5-2.9-.8-.7-1.5-2-1.5-3s-.7-2.3-1.5-3c-.8-.7-1.5-1.8-1.5-2.6 0-.7-1.2-3-2.6-5.1-1.4-2.1-3-4.7-3.5-5.8-.5-1.1-1.8-3.4-2.9-5-1.1-1.7-2.4-4-2.9-5.2-2.7-6.1-25.2-37.8-33-46.7-18.4-20.6-31.2-33.2-43.3-42.4-3.7-2.8-8-6.2-9.5-7.6-1.5-1.4-3.2-2.6-3.6-2.6-.5 0-2.6-1.3-4.6-2.9-4.3-3.4-10.6-7-18.1-10.6-3-1.4-6.3-3-7.2-3.5-2.6-1.4-8.7-1-13.4.9zm13.9 26.9c25.3 14 61.1 47.9 84.2 80 3.3 4.5 6.5 9 7 10 .6.9 2.3 3.6 3.8 5.9 1.5 2.4 2.7 4.5 2.7 4.9 0 .3 1.3 2.3 2.8 4.3 1.5 2 3.9 5.8 5.3 8.6 6 11.7 9.8 19.3 11.8 23.7 1.2 2.6 2.6 5 3.2 5.3.5.4.9 1.5.9 2.5s.7 3.2 1.5 4.9c.8 1.7 2.2 4.5 3 6.2.8 1.7 1.5 3.7 1.5 4.4 0 .7.6 2.6 1.4 4.2 1.7 3.3 6.6 17.7 7.2 21.3.5 2.5 1.9 7.8 4.8 17.9.9 2.9 1.6 6.3 1.6 7.6 0 1.2.7 4.2 1.5 6.5s1.5 5.6 1.5 7.3c0 1.6.5 4.6 1 6.6 1.3 4.5 4 22.7 4.5 30.6.2 3.3.6 9.4 1 13.5.7 8.7.8 46.1 0 53.5-.3 2.7-.7 8.6-1 13-.9 14.8-6.9 51.3-10.1 61.6-.8 2.6-1.4 5.7-1.4 7-.1 1.3-.7 3.5-1.5 4.9-.8 1.4-1.4 3.6-1.5 4.8 0 1.3-.6 3.8-1.4 5.5-.8 1.8-1.6 4.3-1.9 5.7-.7 3.4-3.8 12.3-8.7 24.5-4.3 10.9-4.9 12.1-12.5 27.5-7 14.3-7.5 15.2-11.5 21.5-4 6.4-4.9 7.9-5.6 9.5-.4.8-2 3.1-3.6 5.1-1.5 2-2.8 4-2.8 4.4 0 .7-14.4 19.9-17 22.6-.8.9-4 4.5-7 7.9-7.5 8.6-26.5 27.7-32 32.1-13.9 11.3-17.6 14.1-27 19.8-6.1 3.8-13.4 4.7-16.7 2-1-.8-3.2-2.2-4.9-3.1-10.4-5.7-24.4-17.1-38.3-30.9-11.8-11.8-28.1-30.2-28.1-31.8 0-.5-.6-1.4-1.3-1.8-1.7-1.1-7.2-8.3-8-10.6-.4-.9-1.1-1.7-1.7-1.7-.5 0-1-.5-1-1.1 0-.6-2-3.7-4.5-6.9s-4.5-6.2-4.5-6.5c0-.4-1.3-2.7-3-5.2-1.6-2.4-3-4.7-3-5 0-.3-2-3.9-4.5-8-2.5-4-4.5-7.7-4.5-8 0-.4-2.8-6.3-6.1-13.2-3.4-6.9-6.8-14.2-7.7-16.1-.8-1.9-2-4.4-2.5-5.5-.6-1.1-1.4-3.3-1.8-5-.4-1.6-1.7-5.5-2.9-8.5s-2.5-6.9-3-8.5c-.5-1.7-1.3-4.4-1.8-6-1.6-4.5-5.9-19.8-8.2-28.5-.6-2.5-1.5-7-2-10.1-.5-3.1-1.4-6.8-2-8.3-.5-1.5-1-4.7-1-7.1 0-2.4-.5-5.6-1.1-7.2-.6-1.5-1.5-8-2-14.3-.5-6.3-1.3-14.9-1.8-19-1.3-10-1.3-44.5.1-54.5.5-4.4 1.4-12.1 1.8-17 .5-5 1.1-10.4 1.4-12 .3-1.7 1-6.2 1.6-10 .5-3.9 1.4-8.8 1.9-11 .5-2.2 1.7-7.6 2.7-12 .9-4.4 2.7-12.1 4.1-17 1.3-5 2.8-10.6 3.3-12.5.9-3.9 2.6-8.9 4.6-13.8.8-1.8 1.4-3.9 1.4-4.7 0-.8.7-3.1 1.6-5.2.9-2.1 2.2-5.3 3-7.1 2.8-6.8 4.4-10.1 10.8-23.2 3.7-7.4 7.6-14.9 8.6-16.5 1.1-1.7 2.5-4.1 3.1-5.5.5-1.4 2.1-3.8 3.3-5.5 1.2-1.6 2.6-3.7 3-4.5 3.2-6.9 15.9-24.3 29-40 7.8-9.4 29.1-30.9 37.7-38.2 8-6.8 16.4-13.4 19.4-15.4 1.7-1 3.5-2.3 4-2.7 5.9-4.8 10.7-5.7 15.8-2.9z"/><path d="M443 330.1c-21.3 1.1-31.5 4.1-52.4 15.2-3.8 2.1-15.8 11.3-21 16.2-3.7 3.5-13.8 16.3-17.3 22-5.3 8.6-12.9 27.4-14.3 35.5-.5 2.5-1.3 6.3-1.9 8.5-.6 2.2-1.1 10.3-1.1 18 0 7.7.5 15.8 1.1 18 .6 2.2 1.4 6 1.8 8.5.4 2.5 1.3 5.5 1.9 6.7.7 1.2 1.2 2.9 1.2 3.8 0 2.6 8.9 20.3 13.7 27.3 11.8 17.3 28 31.2 46.5 40 3.7 1.8 7.5 3.2 8.3 3.2.9 0 2.8.6 4.3 1.3 1.5.8 6.5 2.2 11.2 3.3 11.4 2.5 39.1 2.6 46 .1 2.5-.9 5.5-1.7 6.7-1.7 1.2 0 3.9-.7 6-1.6 2.1-.9 5.2-2.3 6.8-3 10.1-4.4 13.4-6.2 23.2-12.9 17.1-11.8 30.5-28 38.5-46.5.8-1.9 2.3-5.2 3.2-7.3.9-2.1 1.6-5 1.6-6.5.1-1.5.7-3.8 1.5-5.2.8-1.4 1.4-4.4 1.5-6.8 0-2.4.5-5.2 1-6.2.6-1 1-6.1 1-11.2-.1-5.1-.1-10.2-.1-11.3 0-4.6-2.3-18.2-3.6-20.7-.7-1.5-1.3-3.6-1.3-4.7s-.7-3.7-1.7-5.8c-3.2-7.4-8.4-17.8-10.3-20.8-1.1-1.7-2.3-3.7-2.7-4.5-.8-1.7-6.6-9.5-8.5-11.4-.7-.7-2.7-2.8-4.3-4.7-11.9-13.5-34.3-27.1-51-31-2.2-.5-4.9-1.3-6-1.8-1.1-.6-4.2-1.2-7-1.4-2.7-.3-5.7-.7-6.5-.9-.8-.3-8-.1-16 .3zm21.5 24.8c25.9 6.3 53.1 27.7 63.5 50.1 1.2 2.5 2.8 5.8 3.5 7.3.8 1.6 1.5 3.7 1.5 4.7 0 .9.7 3.5 1.6 5.5 2.4 5.8 2.4 35.8-.1 44-3.6 12.3-8.8 23.9-14 31.3-1.6 2.4-3.7 5.3-4.5 6.5-4.1 6-16.3 15.6-25.7 20.3-2.3 1.1-4.8 2.5-5.5 3-2.8 2.1-18.2 6.5-26.1 7.5-13.3 1.6-24.6.2-38.2-4.8-4.6-1.7-10.3-4.1-12.5-5.4-27.2-15.2-41.3-34.7-47.3-65.4-1.6-8.2-1.5-24.5.2-33 5-25.3 26.1-52.5 49.1-63.6 2.5-1.2 5.3-2.6 6.4-3.1 10.7-5.5 35.3-8 48.1-4.9z"/></svg>